<svg width="440" height="276" viewBox="0 0 440 276" fill="none" xmlns="http://www.w3.org/2000/svg">
<path d="M24.7482 103C23.6922 103 22.8282 102.664 22.1562 101.992C21.4842 101.32 21.1482 100.456 21.1482 99.4V5.80001C21.1482 4.74401 21.4842 3.88001 22.1562 3.20801C22.8282 2.53601 23.6922 2.20001 24.7482 2.20001H62.9082C74.9082 2.20001 84.3642 4.98401 91.2762 10.552C98.1882 16.024 101.644 23.944 101.644 34.312C101.644 41.32 99.9642 47.176 96.6042 51.88C93.2442 56.584 88.7322 60.088 83.0682 62.392L103.372 98.392C103.66 98.968 103.804 99.496 103.804 99.976C103.804 100.744 103.516 101.464 102.94 102.136C102.364 102.712 101.644 103 100.78 103H84.7962C83.0682 103 81.7722 102.568 80.9082 101.704C80.0442 100.744 79.4202 99.88 79.0362 99.112L61.4682 66.136H44.0442V99.4C44.0442 100.456 43.7082 101.32 43.0362 101.992C42.3642 102.664 41.5002 103 40.4442 103H24.7482ZM44.0442 47.848H62.4762C67.7562 47.848 71.6442 46.648 74.1402 44.248C76.7322 41.848 78.0282 38.488 78.0282 34.168C78.0282 29.848 76.7802 26.44 74.2842 23.944C71.7882 21.448 67.8522 20.2 62.4762 20.2H44.0442V47.848Z" fill="black"/>
<path d="M150.144 104.44C139.104 104.44 130.32 101.368 123.792 95.224C117.36 89.08 113.952 80.152 113.568 68.44C113.568 67.672 113.568 66.664 113.568 65.416C113.568 64.072 113.568 63.016 113.568 62.248C113.952 54.856 115.632 48.52 118.608 43.24C121.584 37.864 125.76 33.784 131.136 31C136.512 28.12 142.8 26.68 150 26.68C158.064 26.68 164.784 28.36 170.16 31.72C175.632 34.984 179.712 39.496 182.4 45.256C185.184 50.92 186.576 57.448 186.576 64.84V68.152C186.576 69.112 186.192 69.928 185.424 70.6C184.752 71.272 183.936 71.608 182.976 71.608H135.888C135.888 71.704 135.888 71.896 135.888 72.184C135.888 72.376 135.888 72.568 135.888 72.76C135.984 75.832 136.56 78.664 137.616 81.256C138.768 83.752 140.352 85.768 142.368 87.304C144.48 88.84 146.976 89.608 149.856 89.608C152.256 89.608 154.224 89.272 155.76 88.6C157.296 87.928 158.544 87.112 159.504 86.152C160.56 85.192 161.328 84.376 161.808 83.704C162.672 82.744 163.344 82.168 163.824 81.976C164.4 81.688 165.264 81.544 166.416 81.544H181.392C182.352 81.544 183.12 81.832 183.696 82.408C184.368 82.888 184.656 83.608 184.56 84.568C184.464 86.104 183.648 88.024 182.112 90.328C180.672 92.536 178.512 94.744 175.632 96.952C172.752 99.064 169.152 100.84 164.832 102.28C160.608 103.72 155.712 104.44 150.144 104.44ZM135.888 58.504H164.112V58.216C164.112 54.76 163.536 51.784 162.384 49.288C161.328 46.696 159.744 44.68 157.632 43.24C155.52 41.8 152.976 41.08 150 41.08C147.024 41.08 144.48 41.8 142.368 43.24C140.256 44.68 138.624 46.696 137.472 49.288C136.416 51.784 135.888 54.76 135.888 58.216V58.504Z" fill="black"/>
<path d="M223.002 104.44C217.914 104.44 213.354 103.48 209.322 101.56C205.29 99.544 202.074 96.856 199.674 93.496C197.274 90.136 196.074 86.392 196.074 82.264C196.074 75.448 198.81 70.072 204.282 66.136C209.85 62.2 217.146 59.512 226.17 58.072L245.034 55.336V52.744C245.034 49 244.17 46.12 242.442 44.104C240.714 42.088 237.69 41.08 233.37 41.08C230.202 41.08 227.658 41.704 225.738 42.952C223.818 44.2 222.33 45.832 221.274 47.848C220.506 49.096 219.402 49.72 217.962 49.72H204.282C203.226 49.72 202.41 49.432 201.834 48.856C201.258 48.184 201.018 47.416 201.114 46.552C201.114 44.92 201.738 43 202.986 40.792C204.234 38.584 206.154 36.424 208.746 34.312C211.338 32.104 214.65 30.28 218.682 28.84C222.714 27.4 227.658 26.68 233.514 26.68C239.562 26.68 244.746 27.4 249.066 28.84C253.386 30.28 256.842 32.296 259.434 34.888C262.026 37.48 263.946 40.504 265.194 43.96C266.442 47.32 267.066 50.968 267.066 54.904V99.4C267.066 100.456 266.73 101.32 266.058 101.992C265.386 102.664 264.522 103 263.466 103H249.354C248.394 103 247.578 102.664 246.906 101.992C246.234 101.32 245.898 100.456 245.898 99.4V94.072C244.65 95.896 242.97 97.624 240.858 99.256C238.746 100.792 236.202 102.04 233.226 103C230.346 103.96 226.938 104.44 223.002 104.44ZM228.762 89.464C231.93 89.464 234.762 88.792 237.258 87.448C239.754 86.104 241.722 84.04 243.162 81.256C244.602 78.472 245.322 74.968 245.322 70.744V68.296L231.93 70.456C226.746 71.32 222.954 72.616 220.554 74.344C218.154 76.072 216.954 78.184 216.954 80.68C216.954 82.504 217.482 84.088 218.538 85.432C219.69 86.776 221.178 87.784 223.002 88.456C224.826 89.128 226.746 89.464 228.762 89.464Z" fill="black"/>
<path d="M317.766 104.44C310.758 104.44 304.566 103.144 299.19 100.552C293.91 97.96 289.734 94.216 286.662 89.32C283.59 84.328 281.91 78.376 281.622 71.464C281.526 69.928 281.478 68.008 281.478 65.704C281.478 63.304 281.526 61.336 281.622 59.8C281.91 52.792 283.542 46.84 286.518 41.944C289.59 36.952 293.814 33.16 299.19 30.568C304.566 27.976 310.758 26.68 317.766 26.68C324.198 26.68 329.67 27.592 334.182 29.416C338.694 31.144 342.39 33.352 345.27 36.04C348.15 38.728 350.262 41.56 351.606 44.536C353.046 47.416 353.814 49.96 353.91 52.168C354.006 53.128 353.67 53.992 352.902 54.76C352.23 55.432 351.414 55.768 350.454 55.768H335.046C334.086 55.768 333.318 55.528 332.742 55.048C332.262 54.472 331.782 53.704 331.302 52.744C329.958 49.384 328.23 46.984 326.118 45.544C324.006 44.104 321.366 43.384 318.198 43.384C313.878 43.384 310.47 44.776 307.974 47.56C305.478 50.344 304.134 54.664 303.942 60.52C303.846 64.264 303.846 67.672 303.942 70.744C304.23 76.696 305.574 81.016 307.974 83.704C310.47 86.392 313.878 87.736 318.198 87.736C321.558 87.736 324.246 87.016 326.262 85.576C328.278 84.136 329.958 81.736 331.302 78.376C331.686 77.416 332.166 76.696 332.742 76.216C333.318 75.64 334.086 75.352 335.046 75.352H350.454C351.414 75.352 352.23 75.736 352.902 76.504C353.67 77.176 354.006 77.992 353.91 78.952C353.814 80.584 353.334 82.504 352.47 84.712C351.702 86.92 350.406 89.176 348.582 91.48C346.854 93.784 344.598 95.944 341.814 97.96C339.03 99.88 335.622 101.464 331.59 102.712C327.654 103.864 323.046 104.44 317.766 104.44Z" fill="black"/>
<path d="M404.033 103C398.081 103 392.993 102.04 388.769 100.12C384.545 98.104 381.329 95.032 379.121 90.904C377.009 86.776 375.953 81.592 375.953 75.352V45.112H364.721C363.665 45.112 362.801 44.776 362.129 44.104C361.457 43.432 361.121 42.568 361.121 41.512V31.72C361.121 30.664 361.457 29.8 362.129 29.128C362.801 28.456 363.665 28.12 364.721 28.12H375.953V4.36001C375.953 3.30401 376.289 2.44001 376.961 1.76801C377.729 1.09601 378.593 0.76001 379.553 0.76001H393.665C394.721 0.76001 395.585 1.09601 396.257 1.76801C396.929 2.44001 397.265 3.30401 397.265 4.36001V28.12H415.265C416.225 28.12 417.041 28.456 417.713 29.128C418.385 29.8 418.721 30.664 418.721 31.72V41.512C418.721 42.568 418.385 43.432 417.713 44.104C417.041 44.776 416.225 45.112 415.265 45.112H397.265V73.624C397.265 77.272 397.889 80.152 399.137 82.264C400.481 84.28 402.785 85.288 406.049 85.288H416.561C417.521 85.288 418.337 85.624 419.009 86.296C419.681 86.968 420.017 87.784 420.017 88.744V99.4C420.017 100.456 419.681 101.32 419.009 101.992C418.337 102.664 417.521 103 416.561 103H404.033Z" fill="black"/>
<path d="M3.65444 274C2.59844 274 1.73444 273.664 1.06244 272.992C0.390443 272.32 0.0544434 271.456 0.0544434 270.4V176.8C0.0544434 175.744 0.390443 174.88 1.06244 174.208C1.73444 173.536 2.59844 173.2 3.65444 173.2H16.7584C18.1984 173.2 19.2544 173.536 19.9264 174.208C20.5984 174.88 21.0304 175.408 21.2224 175.792L59.6704 235.84V176.8C59.6704 175.744 60.0064 174.88 60.6784 174.208C61.3504 173.536 62.1664 173.2 63.1264 173.2H77.8144C78.8704 173.2 79.7344 173.536 80.4064 174.208C81.0785 174.88 81.4145 175.744 81.4145 176.8V270.4C81.4145 271.36 81.0785 272.224 80.4064 272.992C79.7344 273.664 78.8704 274 77.8144 274H64.5664C63.1264 274 62.0704 273.664 61.3984 272.992C60.8224 272.224 60.3904 271.696 60.1024 271.408L21.7984 213.232V270.4C21.7984 271.456 21.4624 272.32 20.7904 272.992C20.1184 273.664 19.2544 274 18.1984 274H3.65444Z" fill="black"/>
<path d="M123.159 275.44C118.071 275.44 113.511 274.48 109.479 272.56C105.447 270.544 102.231 267.856 99.8307 264.496C97.4307 261.136 96.2307 257.392 96.2307 253.264C96.2307 246.448 98.9667 241.072 104.439 237.136C110.007 233.2 117.303 230.512 126.327 229.072L145.191 226.336V223.744C145.191 220 144.327 217.12 142.599 215.104C140.871 213.088 137.847 212.08 133.527 212.08C130.359 212.08 127.815 212.704 125.895 213.952C123.975 215.2 122.487 216.832 121.431 218.848C120.663 220.096 119.559 220.72 118.119 220.72H104.439C103.383 220.72 102.567 220.432 101.991 219.856C101.415 219.184 101.175 218.416 101.271 217.552C101.271 215.92 101.895 214 103.143 211.792C104.391 209.584 106.311 207.424 108.903 205.312C111.495 203.104 114.807 201.28 118.839 199.84C122.871 198.4 127.815 197.68 133.671 197.68C139.719 197.68 144.903 198.4 149.223 199.84C153.543 201.28 156.999 203.296 159.591 205.888C162.183 208.48 164.103 211.504 165.351 214.96C166.599 218.32 167.223 221.968 167.223 225.904V270.4C167.223 271.456 166.887 272.32 166.215 272.992C165.543 273.664 164.679 274 163.623 274H149.511C148.551 274 147.735 273.664 147.063 272.992C146.391 272.32 146.055 271.456 146.055 270.4V265.072C144.807 266.896 143.127 268.624 141.015 270.256C138.903 271.792 136.359 273.04 133.383 274C130.503 274.96 127.095 275.44 123.159 275.44ZM128.919 260.464C132.087 260.464 134.919 259.792 137.415 258.448C139.911 257.104 141.879 255.04 143.319 252.256C144.759 249.472 145.479 245.968 145.479 241.744V239.296L132.087 241.456C126.903 242.32 123.111 243.616 120.711 245.344C118.311 247.072 117.111 249.184 117.111 251.68C117.111 253.504 117.639 255.088 118.695 256.432C119.847 257.776 121.335 258.784 123.159 259.456C124.983 260.128 126.903 260.464 128.919 260.464Z" fill="black"/>
<path d="M220.095 274C214.143 274 209.055 273.04 204.831 271.12C200.607 269.104 197.391 266.032 195.183 261.904C193.071 257.776 192.015 252.592 192.015 246.352V216.112H180.783C179.727 216.112 178.863 215.776 178.191 215.104C177.519 214.432 177.183 213.568 177.183 212.512V202.72C177.183 201.664 177.519 200.8 178.191 200.128C178.863 199.456 179.727 199.12 180.783 199.12H192.015V175.36C192.015 174.304 192.351 173.44 193.023 172.768C193.791 172.096 194.655 171.76 195.615 171.76H209.727C210.783 171.76 211.647 172.096 212.319 172.768C212.991 173.44 213.327 174.304 213.327 175.36V199.12H231.327C232.287 199.12 233.103 199.456 233.775 200.128C234.447 200.8 234.783 201.664 234.783 202.72V212.512C234.783 213.568 234.447 214.432 233.775 215.104C233.103 215.776 232.287 216.112 231.327 216.112H213.327V244.624C213.327 248.272 213.951 251.152 215.199 253.264C216.543 255.28 218.847 256.288 222.111 256.288H232.623C233.583 256.288 234.399 256.624 235.071 257.296C235.743 257.968 236.079 258.784 236.079 259.744V270.4C236.079 271.456 235.743 272.32 235.071 272.992C234.399 273.664 233.583 274 232.623 274H220.095Z" fill="black"/>
<path d="M252.098 274C251.138 274 250.322 273.664 249.65 272.992C248.978 272.32 248.642 271.456 248.642 270.4V202.72C248.642 201.664 248.978 200.8 249.65 200.128C250.322 199.456 251.138 199.12 252.098 199.12H266.498C267.554 199.12 268.418 199.456 269.09 200.128C269.762 200.8 270.098 201.664 270.098 202.72V270.4C270.098 271.456 269.762 272.32 269.09 272.992C268.418 273.664 267.554 274 266.498 274H252.098ZM251.666 187.6C250.706 187.6 249.89 187.264 249.218 186.592C248.546 185.92 248.21 185.056 248.21 184V172.48C248.21 171.424 248.546 170.56 249.218 169.888C249.89 169.12 250.706 168.736 251.666 168.736H266.786C267.842 168.736 268.706 169.12 269.378 169.888C270.146 170.56 270.53 171.424 270.53 172.48V184C270.53 185.056 270.146 185.92 269.378 186.592C268.706 187.264 267.842 187.6 266.786 187.6H251.666Z" fill="black"/>
<path d="M314.654 274C313.214 274 312.11 273.664 311.342 272.992C310.67 272.224 310.094 271.36 309.614 270.4L282.542 203.584C282.35 203.2 282.254 202.768 282.254 202.288C282.254 201.424 282.542 200.704 283.118 200.128C283.79 199.456 284.558 199.12 285.422 199.12H299.39C300.638 199.12 301.55 199.456 302.126 200.128C302.798 200.8 303.23 201.424 303.422 202L321.134 249.52L338.846 202C339.134 201.424 339.566 200.8 340.142 200.128C340.814 199.456 341.726 199.12 342.878 199.12H356.846C357.71 199.12 358.43 199.456 359.006 200.128C359.678 200.704 360.014 201.424 360.014 202.288C360.014 202.768 359.966 203.2 359.87 203.584L332.654 270.4C332.27 271.36 331.694 272.224 330.926 272.992C330.158 273.664 329.054 274 327.614 274H314.654Z" fill="black"/>
<path d="M402.847 275.44C391.807 275.44 383.023 272.368 376.495 266.224C370.063 260.08 366.655 251.152 366.271 239.44C366.271 238.672 366.271 237.664 366.271 236.416C366.271 235.072 366.271 234.016 366.271 233.248C366.655 225.856 368.335 219.52 371.311 214.24C374.287 208.864 378.463 204.784 383.839 202C389.215 199.12 395.503 197.68 402.703 197.68C410.767 197.68 417.487 199.36 422.863 202.72C428.335 205.984 432.415 210.496 435.103 216.256C437.887 221.92 439.279 228.448 439.279 235.84V239.152C439.279 240.112 438.895 240.928 438.127 241.6C437.455 242.272 436.639 242.608 435.679 242.608H388.591C388.591 242.704 388.591 242.896 388.591 243.184C388.591 243.376 388.591 243.568 388.591 243.76C388.687 246.832 389.263 249.664 390.319 252.256C391.471 254.752 393.055 256.768 395.071 258.304C397.183 259.84 399.679 260.608 402.559 260.608C404.959 260.608 406.927 260.272 408.463 259.6C409.999 258.928 411.247 258.112 412.207 257.152C413.263 256.192 414.031 255.376 414.511 254.704C415.375 253.744 416.047 253.168 416.527 252.976C417.103 252.688 417.967 252.544 419.119 252.544H434.095C435.055 252.544 435.823 252.832 436.399 253.408C437.071 253.888 437.359 254.608 437.263 255.568C437.167 257.104 436.351 259.024 434.815 261.328C433.375 263.536 431.215 265.744 428.335 267.952C425.455 270.064 421.855 271.84 417.535 273.28C413.311 274.72 408.415 275.44 402.847 275.44ZM388.591 229.504H416.815V229.216C416.815 225.76 416.239 222.784 415.087 220.288C414.031 217.696 412.447 215.68 410.335 214.24C408.223 212.8 405.679 212.08 402.703 212.08C399.727 212.08 397.183 212.8 395.071 214.24C392.959 215.68 391.327 217.696 390.175 220.288C389.119 222.784 388.591 225.76 388.591 229.216V229.504Z" fill="black"/>
</svg>
